# xmcd
#
# Track frame offsets: 
#        150
#        2567
#        19600
#        37980
#        61625
#        87635
#        105797
#        128052
#        150502
#        170005
#        187307
#        205632
#
# Disc length: 3045 seconds
#
# Revision: 0
# Processed by: cddbd v1.5.2PL0 Copyright (c) Steve Scherf et al.
# Submitted via: ExactAudioCopyFreeDBPlugin 1.0
#
DISCID=890be30c
DTITLE=Yoko Blaqstone - Back to My Base
DYEAR=2005
DGENRE=R&B
TTITLE0=Opening~Welcome~
TTITLE1=SOMETHING MORE
TTITLE2=いつまで…
TTITLE3=Throw Your Hands Up <They don't hear me though>
TTITLE4=クリスマス・イヴの街に
TTITLE5=MY LOVE（私の子供達）
TTITLE6=Super Hero
TTITLE7=Stepping∞Out
TTITLE8=Kiss
TTITLE9=君との約束
TTITLE10=Deeply In Love
TTITLE11=(I'm So Proud) To Beg for Your Love
EXTD=
EXTT0=
EXTT1=
EXTT2=
EXTT3=
EXTT4=
EXTT5=
EXTT6=
EXTT7=
EXTT8=
EXTT9=
EXTT10=
EXTT11=
PLAYORDER=
